<?xml version="1.0" encoding="UTF-8" standalone="no"?>
<!DOCTYPE svg PUBLIC "-//W3C//DTD SVG 1.1//EN" "http://www.w3.org/Graphics/SVG/1.1/DTD/svg11.dtd">
<svg xmlns="http://www.w3.org/2000/svg" version="1.1" viewBox="0.00 0.00 500.00 250.00">
<g stroke-width="2.00" fill="none" stroke-linecap="butt">
<path stroke="#40659c" vector-effect="non-scaling-stroke" d="
  M 126.27 21.09
  Q 129.38 27.71 126.22 34.70"
/>
<path stroke="#2d5182" vector-effect="non-scaling-stroke" d="
  M 126.22 34.70
  L 122.76 37.93"
/>
<path stroke="#40659c" vector-effect="non-scaling-stroke" d="
  M 122.76 37.93
  Q 121.30 36.96 119.82 34.93
  Q 116.37 30.20 114.18 25.82"
/>
<path stroke="#2d5182" vector-effect="non-scaling-stroke" d="
  M 446.83 123.20
  C 450.72 120.86 452.62 116.62 450.82 112.28
  Q 448.41 106.45 440.30 107.71"
/>
<path stroke="#2d5182" vector-effect="non-scaling-stroke" d="
  M 21.70 120.72
  Q 21.99 119.79 22.73 118.94"
/>
<path stroke="#2d5182" vector-effect="non-scaling-stroke" d="
  M 56.45 107.59
  C 53.70 107.78 50.57 107.60 48.41 109.18
  C 45.39 111.40 44.17 115.30 46.01 118.84
  Q 48.02 122.74 52.73 124.24"
/>
<path stroke="#2d5182" vector-effect="non-scaling-stroke" d="
  M 103.22 115.71
  Q 98.18 117.42 97.09 121.82
  Q 96.31 124.93 97.86 127.69
  Q 99.20 130.09 102.05 131.27
  Q 109.81 134.48 114.25 124.19"
/>
<path stroke="#2d5182" vector-effect="non-scaling-stroke" d="
  M 149.95 120.28
  Q 147.16 122.59 146.21 125.15
  Q 144.23 130.50 148.83 134.15
  Q 152.78 137.30 156.68 135.68
  Q 162.08 133.44 162.37 126.10"
/>
<path stroke="#2d5182" vector-effect="non-scaling-stroke" d="
  M 198.64 124.45
  Q 195.68 128.39 196.99 132.83
  Q 197.98 136.14 200.44 137.38
  C 203.35 138.84 208.19 138.94 210.39 136.16
  Q 214.42 131.07 211.50 125.56"
/>
<path stroke="#2d5182" vector-effect="non-scaling-stroke" d="
  M 241.66 126.17
  Q 238.91 130.47 240.43 134.78
  C 242.72 141.25 252.76 141.84 255.44 135.23
  Q 257.11 131.11 254.92 126.63"
/>
<path stroke="#2d5182" vector-effect="non-scaling-stroke" d="
  M 285.28 127.49
  Q 283.05 134.63 287.64 138.18
  C 291.13 140.86 296.00 140.53 298.83 137.05
  Q 302.90 132.04 298.45 125.55"
/>
<path stroke="#2d5182" vector-effect="non-scaling-stroke" d="
  M 334.63 125.29
  C 332.71 140.51 353.29 138.09 350.36 126.33
  Q 349.55 123.07 346.91 120.57"
/>
<path stroke="#2d5182" vector-effect="non-scaling-stroke" d="
  M 382.57 122.74
  Q 383.26 126.87 385.28 129.21
  C 389.17 133.70 396.28 132.23 398.82 126.89
  C 401.03 122.26 397.93 117.44 393.53 115.40"
/>
<path stroke="#1a2f5d" vector-effect="non-scaling-stroke" d="
  M 371.78 34.60
  L 360.28 36.63
  A 1.41 1.41 0.0 0 0 359.24 38.59
  L 393.53 115.40"
/>
<path stroke="#40659c" vector-effect="non-scaling-stroke" d="
  M 393.53 115.40
  C 389.03 116.16 386.66 115.64 384.14 120.31
  Q 383.50 121.49 382.57 122.74"
/>
<path stroke="#1a2f5d" vector-effect="non-scaling-stroke" d="
  M 382.57 122.74
  L 345.24 40.70
  A 2.90 2.89 -16.1 0 0 342.23 39.04
  L 328.79 40.83
  A 1.00 0.99 -10.7 0 0 327.95 42.05
  L 346.91 120.57"
/>
<path stroke="#40659c" vector-effect="non-scaling-stroke" d="
  M 346.91 120.57
  Q 338.56 118.36 334.63 125.29"
/>
<path stroke="#1a2f5d" vector-effect="non-scaling-stroke" d="
  M 334.63 125.29
  L 314.18 43.55
  A 1.89 1.89 0.0 0 0 312.03 42.14
  Q 306.20 43.12 299.66 43.11
  C 297.32 43.10 294.95 43.66 292.63 43.98
  Q 291.99 44.07 292.04 44.72
  L 298.45 125.55"
/>
<path stroke="#40659c" vector-effect="non-scaling-stroke" d="
  M 298.45 125.55
  Q 291.12 121.79 285.28 127.49"
/>
<path stroke="#1a2f5d" vector-effect="non-scaling-stroke" d="
  M 285.28 127.49
  L 277.79 45.02
  A 0.76 0.76 0.0 0 0 276.97 44.33
  Q 266.23 45.17 255.57 45.00
  Q 255.03 45.00 255.03 45.54
  L 254.92 126.63"
/>
<path stroke="#40659c" vector-effect="non-scaling-stroke" d="
  M 254.92 126.63
  Q 248.22 121.73 241.66 126.17"
/>
<path stroke="#1a2f5d" vector-effect="non-scaling-stroke" d="
  M 241.66 126.17
  L 241.41 46.23
  A 1.17 1.16 90.0 0 0 240.26 45.07
  L 219.96 44.75
  A 0.83 0.83 0.0 0 0 219.11 45.51
  Q 217.01 67.94 215.20 89.66
  Q 214.83 94.17 214.29 98.81
  C 213.94 101.79 214.17 104.73 213.69 107.63
  Q 213.18 110.75 213.08 114.12
  Q 212.93 119.82 211.50 125.56"
/>
<path stroke="#40659c" vector-effect="non-scaling-stroke" d="
  M 211.50 125.56
  Q 205.43 120.06 198.64 124.45"
/>
<path stroke="#1a2f5d" vector-effect="non-scaling-stroke" d="
  M 198.64 124.45
  Q 198.95 121.12 199.00 117.99
  Q 199.07 114.61 199.55 111.68
  C 200.10 108.33 199.82 105.12 200.31 101.77
  Q 200.61 99.70 200.75 97.73
  Q 201.52 86.59 202.54 76.85
  C 202.96 72.82 202.89 68.79 203.49 64.83
  C 204.10 60.74 203.91 56.70 204.63 52.59
  C 205.08 50.01 205.04 47.49 204.99 44.90
  A 1.02 1.01 -85.2 0 0 204.16 43.91
  Q 197.80 42.75 190.32 42.94
  Q 187.81 43.00 185.31 42.47
  A 2.13 2.13 0.0 0 0 182.80 44.04
  L 162.37 126.10"
/>
<path stroke="#40659c" vector-effect="non-scaling-stroke" d="
  M 162.37 126.10
  Q 157.78 118.72 149.95 120.28"
/>
<path stroke="#1a2f5d" vector-effect="non-scaling-stroke" d="
  M 149.95 120.28
  L 169.01 42.18
  A 0.88 0.87 12.9 0 0 168.34 41.12
  Q 163.18 40.04 158.34 39.83
  Q 156.39 39.75 154.46 39.08
  A 1.21 1.20 -50.2 0 0 153.44 39.18
  Q 152.39 39.80 151.73 41.26
  Q 134.84 78.93 118.02 116.65
  Q 116.21 120.71 114.25 124.19"
/>
<path stroke="#40659c" vector-effect="non-scaling-stroke" d="
  M 114.25 124.19
  Q 113.28 122.61 112.44 120.88
  C 110.16 116.18 107.86 116.26 103.22 115.71"
/>
<path stroke="#1a2f5d" vector-effect="non-scaling-stroke" d="
  M 103.22 115.71
  L 137.92 38.13
  Q 138.26 37.36 137.44 37.18
  L 126.22 34.70"
/>
<path stroke="#1a2f5d" vector-effect="non-scaling-stroke" d="
  M 122.76 37.93
  Q 122.79 38.48 122.61 38.82
  Q 112.45 57.93 102.32 77.06
  C 101.13 79.30 99.64 81.68 97.89 83.55
  Q 86.83 95.33 73.79 110.04
  Q 64.67 120.33 59.97 124.46
  Q 56.17 127.79 52.73 124.24"
/>
<path stroke="#40659c" vector-effect="non-scaling-stroke" d="
  M 52.73 124.24
  Q 54.21 123.69 55.78 123.28
  Q 57.52 122.82 58.51 121.79
  Q 65.69 114.31 56.45 107.59"
/>
<path stroke="#1a2f5d" vector-effect="non-scaling-stroke" d="
  M 56.45 107.59
  Q 59.72 105.05 62.76 101.52
  Q 63.13 101.10 63.15 100.67
  A 0.36 0.36 0.0 0 0 62.63 100.33
  Q 44.31 109.25 24.90 118.70
  C 24.25 119.02 23.41 119.01 22.73 118.94"
/>
<path stroke="#40659c" vector-effect="non-scaling-stroke" d="
  M 22.73 118.94
  Q 24.68 110.20 16.27 107.60"
/>
<path stroke="#40659c" vector-effect="non-scaling-stroke" d="
  M 483.54 109.69
  C 480.86 111.70 478.12 112.90 477.29 116.80
  C 476.98 118.30 477.21 120.03 477.07 121.69"
/>
<path stroke="#1a2f5d" vector-effect="non-scaling-stroke" d="
  M 469.60 117.80
  L 435.05 98.99
  Q 432.43 97.57 434.26 99.93
  L 440.30 107.71"
/>
<path stroke="#40659c" vector-effect="non-scaling-stroke" d="
  M 440.30 107.71
  Q 433.06 112.91 436.13 118.94
  C 438.27 123.15 442.41 124.30 446.83 123.20"
/>
<path stroke="#1a2f5d" vector-effect="non-scaling-stroke" d="
  M 446.83 123.20
  Q 445.89 126.12 443.45 127.29
  Q 441.48 128.24 439.05 127.24
  Q 436.41 126.16 434.58 123.64
  Q 421.11 105.15 406.94 86.10
  C 404.32 82.57 399.63 79.85 397.71 76.78
  Q 386.41 58.70 375.14 40.62
  Q 373.89 38.62 373.75 37.05"
/>
<path stroke="#40659c" vector-effect="non-scaling-stroke" d="
  M 382.97 27.32
  Q 380.85 30.86 378.62 34.37
  Q 376.57 37.60 373.75 37.05"
/>
<path stroke="#2d5182" vector-effect="non-scaling-stroke" d="
  M 373.75 37.05
  Q 372.45 35.86 371.78 34.60"
/>
<path stroke="#40659c" vector-effect="non-scaling-stroke" d="
  M 371.78 34.60
  Q 369.48 30.67 370.19 26.55
  Q 370.71 23.57 371.29 20.96"
/>
</g>
<path fill="#5387c1" d="
  M 126.27 21.09
  Q 129.38 27.71 126.22 34.70
  L 122.76 37.93
  Q 121.30 36.96 119.82 34.93
  Q 116.37 30.20 114.18 25.82
  Q 108.85 16.35 111.37 6.30
  A 2.24 2.24 0.0 0 1 114.20 4.70
  C 118.07 5.89 122.51 12.38 123.67 15.11
  Q 124.81 17.80 126.27 21.09
  Z"
/>
<path fill="#5387c1" d="
  M 382.97 27.32
  Q 380.85 30.86 378.62 34.37
  Q 376.57 37.60 373.75 37.05
  Q 372.45 35.86 371.78 34.60
  Q 369.48 30.67 370.19 26.55
  Q 370.71 23.57 371.29 20.96
  C 373.92 15.87 377.83 6.41 383.94 4.79
  A 1.75 1.75 0.0 0 1 385.91 5.63
  C 387.85 9.10 387.28 17.10 386.23 19.45
  Q 384.45 23.42 382.97 27.32
  Z"
/>
<path fill="#2d4377" d="
  M 371.29 20.96
  Q 370.71 23.57 370.19 26.55
  Q 369.48 30.67 371.78 34.60
  L 360.28 36.63
  A 1.41 1.41 0.0 0 0 359.24 38.59
  L 393.53 115.40
  C 389.03 116.16 386.66 115.64 384.14 120.31
  Q 383.50 121.49 382.57 122.74
  L 345.24 40.70
  A 2.90 2.89 -16.1 0 0 342.23 39.04
  L 328.79 40.83
  A 1.00 0.99 -10.7 0 0 327.95 42.05
  L 346.91 120.57
  Q 338.56 118.36 334.63 125.29
  L 314.18 43.55
  A 1.89 1.89 0.0 0 0 312.03 42.14
  Q 306.20 43.12 299.66 43.11
  C 297.32 43.10 294.95 43.66 292.63 43.98
  Q 291.99 44.07 292.04 44.72
  L 298.45 125.55
  Q 291.12 121.79 285.28 127.49
  L 277.79 45.02
  A 0.76 0.76 0.0 0 0 276.97 44.33
  Q 266.23 45.17 255.57 45.00
  Q 255.03 45.00 255.03 45.54
  L 254.92 126.63
  Q 248.22 121.73 241.66 126.17
  L 241.41 46.23
  A 1.17 1.16 90.0 0 0 240.26 45.07
  L 219.96 44.75
  A 0.83 0.83 0.0 0 0 219.11 45.51
  Q 217.01 67.94 215.20 89.66
  Q 214.83 94.17 214.29 98.81
  C 213.94 101.79 214.17 104.73 213.69 107.63
  Q 213.18 110.75 213.08 114.12
  Q 212.93 119.82 211.50 125.56
  Q 205.43 120.06 198.64 124.45
  Q 198.95 121.12 199.00 117.99
  Q 199.07 114.61 199.55 111.68
  C 200.10 108.33 199.82 105.12 200.31 101.77
  Q 200.61 99.70 200.75 97.73
  Q 201.52 86.59 202.54 76.85
  C 202.96 72.82 202.89 68.79 203.49 64.83
  C 204.10 60.74 203.91 56.70 204.63 52.59
  C 205.08 50.01 205.04 47.49 204.99 44.90
  A 1.02 1.01 -85.2 0 0 204.16 43.91
  Q 197.80 42.75 190.32 42.94
  Q 187.81 43.00 185.31 42.47
  A 2.13 2.13 0.0 0 0 182.80 44.04
  L 162.37 126.10
  Q 157.78 118.72 149.95 120.28
  L 169.01 42.18
  A 0.88 0.87 12.9 0 0 168.34 41.12
  Q 163.18 40.04 158.34 39.83
  Q 156.39 39.75 154.46 39.08
  A 1.21 1.20 -50.2 0 0 153.44 39.18
  Q 152.39 39.80 151.73 41.26
  Q 134.84 78.93 118.02 116.65
  Q 116.21 120.71 114.25 124.19
  Q 113.28 122.61 112.44 120.88
  C 110.16 116.18 107.86 116.26 103.22 115.71
  L 137.92 38.13
  Q 138.26 37.36 137.44 37.18
  L 126.22 34.70
  Q 129.38 27.71 126.27 21.09
  Q 129.95 21.86 141.76 23.62
  Q 166.83 27.37 193.54 29.22
  Q 204.24 29.96 209.39 30.09
  C 211.31 30.14 213.04 30.53 214.87 30.95
  Q 215.51 31.09 216.07 30.77
  Q 216.77 30.38 217.53 30.82
  A 1.56 1.50 -29.3 0 0 218.29 31.02
  Q 247.82 31.03 276.98 30.99
  Q 277.65 30.99 278.23 30.74
  A 1.39 1.36 39.7 0 1 279.10 30.67
  Q 280.66 31.06 282.22 30.63
  C 285.35 29.78 288.81 30.03 292.05 29.91
  Q 295.20 29.80 298.91 29.46
  Q 301.54 29.22 305.75 28.97
  Q 335.66 27.14 371.29 20.96
  Z"
/>
<path fill="#2d4377" d="
  M 114.18 25.82
  Q 116.37 30.20 119.82 34.93
  Q 121.30 36.96 122.76 37.93
  Q 122.79 38.48 122.61 38.82
  Q 112.45 57.93 102.32 77.06
  C 101.13 79.30 99.64 81.68 97.89 83.55
  Q 86.83 95.33 73.79 110.04
  Q 64.67 120.33 59.97 124.46
  Q 56.17 127.79 52.73 124.24
  Q 54.21 123.69 55.78 123.28
  Q 57.52 122.82 58.51 121.79
  Q 65.69 114.31 56.45 107.59
  Q 59.72 105.05 62.76 101.52
  Q 63.13 101.10 63.15 100.67
  A 0.36 0.36 0.0 0 0 62.63 100.33
  Q 44.31 109.25 24.90 118.70
  C 24.25 119.02 23.41 119.01 22.73 118.94
  Q 24.68 110.20 16.27 107.60
  Q 51.36 90.51 86.41 73.43
  Q 89.86 71.75 91.88 67.88
  Q 102.61 47.27 114.18 25.82
  Z"
/>
<path fill="#2d4377" d="
  M 382.97 27.32
  Q 399.49 54.43 407.35 66.15
  C 410.08 70.22 414.14 72.38 418.67 74.78
  Q 451.17 91.98 483.54 109.69
  C 480.86 111.70 478.12 112.90 477.29 116.80
  C 476.98 118.30 477.21 120.03 477.07 121.69
  L 469.60 117.80
  L 435.05 98.99
  Q 432.43 97.57 434.26 99.93
  L 440.30 107.71
  Q 433.06 112.91 436.13 118.94
  C 438.27 123.15 442.41 124.30 446.83 123.20
  Q 445.89 126.12 443.45 127.29
  Q 441.48 128.24 439.05 127.24
  Q 436.41 126.16 434.58 123.64
  Q 421.11 105.15 406.94 86.10
  C 404.32 82.57 399.63 79.85 397.71 76.78
  Q 386.41 58.70 375.14 40.62
  Q 373.89 38.62 373.75 37.05
  Q 376.57 37.60 378.62 34.37
  Q 380.85 30.86 382.97 27.32
  Z"
/>
<path fill="#071b43" d="
  M 371.78 34.60
  Q 372.45 35.86 373.75 37.05
  Q 373.89 38.62 375.14 40.62
  Q 386.41 58.70 397.71 76.78
  C 399.63 79.85 404.32 82.57 406.94 86.10
  Q 421.11 105.15 434.58 123.64
  Q 436.41 126.16 439.05 127.24
  Q 441.48 128.24 443.45 127.29
  Q 445.89 126.12 446.83 123.20
  C 450.72 120.86 452.62 116.62 450.82 112.28
  Q 448.41 106.45 440.30 107.71
  L 434.26 99.93
  Q 432.43 97.57 435.05 98.99
  L 469.60 117.80
  L 458.93 140.94
  Q 458.45 142.00 457.29 142.00
  L 31.21 142.00
  Q 30.42 142.00 30.15 141.25
  Q 26.59 131.41 22.88 121.52
  Q 22.76 121.18 22.45 121.01
  Q 22.14 120.83 21.70 120.72
  Q 21.99 119.79 22.73 118.94
  C 23.41 119.01 24.25 119.02 24.90 118.70
  Q 44.31 109.25 62.63 100.33
  A 0.36 0.36 0.0 0 1 63.15 100.67
  Q 63.13 101.10 62.76 101.52
  Q 59.72 105.05 56.45 107.59
  C 53.70 107.78 50.57 107.60 48.41 109.18
  C 45.39 111.40 44.17 115.30 46.01 118.84
  Q 48.02 122.74 52.73 124.24
  Q 56.17 127.79 59.97 124.46
  Q 64.67 120.33 73.79 110.04
  Q 86.83 95.33 97.89 83.55
  C 99.64 81.68 101.13 79.30 102.32 77.06
  Q 112.45 57.93 122.61 38.82
  Q 122.79 38.48 122.76 37.93
  L 126.22 34.70
  L 137.44 37.18
  Q 138.26 37.36 137.92 38.13
  L 103.22 115.71
  Q 98.18 117.42 97.09 121.82
  Q 96.31 124.93 97.86 127.69
  Q 99.20 130.09 102.05 131.27
  Q 109.81 134.48 114.25 124.19
  Q 116.21 120.71 118.02 116.65
  Q 134.84 78.93 151.73 41.26
  Q 152.39 39.80 153.44 39.18
  A 1.21 1.20 -50.2 0 1 154.46 39.08
  Q 156.39 39.75 158.34 39.83
  Q 163.18 40.04 168.34 41.12
  A 0.88 0.87 12.9 0 1 169.01 42.18
  L 149.95 120.28
  Q 147.16 122.59 146.21 125.15
  Q 144.23 130.50 148.83 134.15
  Q 152.78 137.30 156.68 135.68
  Q 162.08 133.44 162.37 126.10
  L 182.80 44.04
  A 2.13 2.13 0.0 0 1 185.31 42.47
  Q 187.81 43.00 190.32 42.94
  Q 197.80 42.75 204.16 43.91
  A 1.02 1.01 -85.2 0 1 204.99 44.90
  C 205.04 47.49 205.08 50.01 204.63 52.59
  C 203.91 56.70 204.10 60.74 203.49 64.83
  C 202.89 68.79 202.96 72.82 202.54 76.85
  Q 201.52 86.59 200.75 97.73
  Q 200.61 99.70 200.31 101.77
  C 199.82 105.12 200.10 108.33 199.55 111.68
  Q 199.07 114.61 199.00 117.99
  Q 198.95 121.12 198.64 124.45
  Q 195.68 128.39 196.99 132.83
  Q 197.98 136.14 200.44 137.38
  C 203.35 138.84 208.19 138.94 210.39 136.16
  Q 214.42 131.07 211.50 125.56
  Q 212.93 119.82 213.08 114.12
  Q 213.18 110.75 213.69 107.63
  C 214.17 104.73 213.94 101.79 214.29 98.81
  Q 214.83 94.17 215.20 89.66
  Q 217.01 67.94 219.11 45.51
  A 0.83 0.83 0.0 0 1 219.96 44.75
  L 240.26 45.07
  A 1.17 1.16 90.0 0 1 241.41 46.23
  L 241.66 126.17
  Q 238.91 130.47 240.43 134.78
  C 242.72 141.25 252.76 141.84 255.44 135.23
  Q 257.11 131.11 254.92 126.63
  L 255.03 45.54
  Q 255.03 45.00 255.57 45.00
  Q 266.23 45.17 276.97 44.33
  A 0.76 0.76 0.0 0 1 277.79 45.02
  L 285.28 127.49
  Q 283.05 134.63 287.64 138.18
  C 291.13 140.86 296.00 140.53 298.83 137.05
  Q 302.90 132.04 298.45 125.55
  L 292.04 44.72
  Q 291.99 44.07 292.63 43.98
  C 294.95 43.66 297.32 43.10 299.66 43.11
  Q 306.20 43.12 312.03 42.14
  A 1.89 1.89 0.0 0 1 314.18 43.55
  L 334.63 125.29
  C 332.71 140.51 353.29 138.09 350.36 126.33
  Q 349.55 123.07 346.91 120.57
  L 327.95 42.05
  A 1.00 0.99 -10.7 0 1 328.79 40.83
  L 342.23 39.04
  A 2.90 2.89 -16.1 0 1 345.24 40.70
  L 382.57 122.74
  Q 383.26 126.87 385.28 129.21
  C 389.17 133.70 396.28 132.23 398.82 126.89
  C 401.03 122.26 397.93 117.44 393.53 115.40
  L 359.24 38.59
  A 1.41 1.41 0.0 0 1 360.28 36.63
  L 371.78 34.60
  Z"
/>
<path fill="#5387c1" d="
  M 16.27 107.60
  Q 24.68 110.20 22.73 118.94
  Q 21.99 119.79 21.70 120.72
  Q 17.65 124.39 13.24 123.28
  C 6.33 121.54 5.27 113.24 10.92 109.40
  Q 13.24 107.82 16.27 107.60
  Z"
/>
<path fill="#5387c1" d="
  M 446.83 123.20
  C 442.41 124.30 438.27 123.15 436.13 118.94
  Q 433.06 112.91 440.30 107.71
  Q 448.41 106.45 450.82 112.28
  C 452.62 116.62 450.72 120.86 446.83 123.20
  Z"
/>
<path fill="#5387c1" d="
  M 56.45 107.59
  Q 65.69 114.31 58.51 121.79
  Q 57.52 122.82 55.78 123.28
  Q 54.21 123.69 52.73 124.24
  Q 48.02 122.74 46.01 118.84
  C 44.17 115.30 45.39 111.40 48.41 109.18
  C 50.57 107.60 53.70 107.78 56.45 107.59
  Z"
/>
<path fill="#5387c1" d="
  M 483.54 109.69
  C 488.02 110.96 492.49 112.35 492.93 117.52
  Q 493.37 122.68 488.84 125.23
  C 484.26 127.80 480.63 124.72 477.07 121.69
  C 477.21 120.03 476.98 118.30 477.29 116.80
  C 478.12 112.90 480.86 111.70 483.54 109.69
  Z"
/>
<path fill="#5387c1" d="
  M 393.53 115.40
  C 397.93 117.44 401.03 122.26 398.82 126.89
  C 396.28 132.23 389.17 133.70 385.28 129.21
  Q 383.26 126.87 382.57 122.74
  Q 383.50 121.49 384.14 120.31
  C 386.66 115.64 389.03 116.16 393.53 115.40
  Z"
/>
<path fill="#5387c1" d="
  M 103.22 115.71
  C 107.86 116.26 110.16 116.18 112.44 120.88
  Q 113.28 122.61 114.25 124.19
  Q 109.81 134.48 102.05 131.27
  Q 99.20 130.09 97.86 127.69
  Q 96.31 124.93 97.09 121.82
  Q 98.18 117.42 103.22 115.71
  Z"
/>
<path fill="#5387c1" d="
  M 162.37 126.10
  Q 162.08 133.44 156.68 135.68
  Q 152.78 137.30 148.83 134.15
  Q 144.23 130.50 146.21 125.15
  Q 147.16 122.59 149.95 120.28
  Q 157.78 118.72 162.37 126.10
  Z"
/>
<path fill="#5387c1" d="
  M 346.91 120.57
  Q 349.55 123.07 350.36 126.33
  C 353.29 138.09 332.71 140.51 334.63 125.29
  Q 338.56 118.36 346.91 120.57
  Z"
/>
<path fill="#5387c1" d="
  M 211.50 125.56
  Q 214.42 131.07 210.39 136.16
  C 208.19 138.94 203.35 138.84 200.44 137.38
  Q 197.98 136.14 196.99 132.83
  Q 195.68 128.39 198.64 124.45
  Q 205.43 120.06 211.50 125.56
  Z"
/>
<path fill="#5387c1" d="
  M 254.92 126.63
  Q 257.11 131.11 255.44 135.23
  C 252.76 141.84 242.72 141.25 240.43 134.78
  Q 238.91 130.47 241.66 126.17
  Q 248.22 121.73 254.92 126.63
  Z"
/>
<path fill="#5387c1" d="
  M 298.45 125.55
  Q 302.90 132.04 298.83 137.05
  C 296.00 140.53 291.13 140.86 287.64 138.18
  Q 283.05 134.63 285.28 127.49
  Q 291.12 121.79 298.45 125.55
  Z"
/>
<path fill="#ffffff" d="
  M 121.52 177.97
  L 127.10 178.03
  A 0.33 0.33 0.0 0 1 127.43 178.36
  L 127.48 188.45
  A 0.33 0.33 0.0 0 1 127.15 188.78
  L 121.53 188.82
  A 0.33 0.33 0.0 0 0 121.20 189.15
  L 121.20 211.98
  A 0.33 0.33 0.0 0 1 120.87 212.31
  L 110.70 212.16
  A 0.33 0.33 0.0 0 1 110.37 211.83
  L 110.38 159.06
  A 0.33 0.33 0.0 0 1 110.71 158.73
  L 120.87 158.74
  A 0.33 0.33 0.0 0 1 121.20 159.07
  L 121.19 177.64
  A 0.33 0.33 0.0 0 0 121.52 177.97
  Z"
/>
<path fill="#ffffff" d="
  M 181.37 179.60
  L 181.37 198.17
  A 0.33 0.33 0.0 0 1 181.04 198.50
  L 170.92 198.51
  A 0.33 0.33 0.0 0 1 170.59 198.18
  L 170.59 159.06
  A 0.33 0.33 0.0 0 1 170.92 158.73
  L 181.04 158.74
  A 0.33 0.33 0.0 0 1 181.37 159.07
  L 181.37 168.48
  A 0.33 0.33 0.0 0 0 181.70 168.81
  L 187.35 168.81
  A 0.33 0.33 0.0 0 1 187.68 169.14
  L 187.69 178.92
  A 0.33 0.33 0.0 0 1 187.36 179.25
  L 181.70 179.27
  A 0.33 0.33 0.0 0 0 181.37 179.60
  Z"
/>
<rect fill="#ffffff" x="232.00" y="158.75" width="11.06" height="53.52" rx="0.51"/>
<path fill="#ffffff" d="
  M 265.47 161.93
  L 291.41 161.94
  A 0.36 0.36 0.0 0 0 291.77 161.59
  L 291.80 159.13
  A 0.36 0.36 0.0 0 1 292.16 158.78
  L 301.93 158.77
  A 0.36 0.36 0.0 0 1 302.29 159.13
  L 302.29 180.15
  A 0.36 0.36 0.0 0 1 301.93 180.51
  L 254.94 180.49
  A 0.36 0.36 0.0 0 1 254.58 180.13
  L 254.59 159.11
  A 0.36 0.36 0.0 0 1 254.95 158.75
  L 264.72 158.78
  A 0.36 0.36 0.0 0 1 265.08 159.13
  L 265.11 161.58
  A 0.36 0.36 0.0 0 0 265.47 161.93
  Z
  M 291.79 170.28
  A 0.44 0.44 0.0 0 0 291.35 169.84
  L 265.47 169.84
  A 0.44 0.44 0.0 0 0 265.03 170.28
  L 265.03 172.22
  A 0.44 0.44 0.0 0 0 265.47 172.66
  L 291.35 172.66
  A 0.44 0.44 0.0 0 0 291.79 172.22
  L 291.79 170.28
  Z"
/>
<path fill="#ffffff" d="
  M 351.01 167.45
  L 314.96 167.46
  A 0.40 0.40 0.0 0 1 314.56 167.06
  L 314.56 159.16
  A 0.40 0.40 0.0 0 1 314.96 158.76
  L 361.92 158.77
  A 0.40 0.40 0.0 0 1 362.32 159.17
  L 362.33 176.54
  A 0.40 0.40 0.0 0 1 361.93 176.94
  L 351.84 177.01
  A 0.40 0.40 0.0 0 1 351.44 176.61
  L 351.41 167.85
  A 0.40 0.40 0.0 0 0 351.01 167.45
  Z"
/>
<path fill="#ffffff" d="
  M 422.38 177.98
  L 427.87 178.04
  A 0.32 0.32 0.0 0 1 428.19 178.36
  L 428.18 188.43
  A 0.32 0.32 0.0 0 1 427.86 188.75
  L 422.37 188.77
  A 0.32 0.32 0.0 0 0 422.05 189.09
  L 422.06 211.98
  A 0.32 0.32 0.0 0 1 421.74 212.30
  L 411.31 212.29
  A 0.32 0.32 0.0 0 1 410.99 211.97
  L 411.01 159.05
  A 0.32 0.32 0.0 0 1 411.33 158.73
  L 421.73 158.75
  A 0.32 0.32 0.0 0 1 422.05 159.07
  L 422.06 177.66
  A 0.32 0.32 0.0 0 0 422.38 177.98
  Z"
/>
<path fill="#ffffff" d="
  M 149.32 180.80
  Q 143.27 189.42 132.57 191.22
  Q 130.96 191.49 130.96 189.86
  L 130.95 181.73
  Q 130.95 181.14 131.53 181.04
  C 140.99 179.33 145.24 168.08 145.01 159.55
  A 0.62 0.61 -0.9 0 1 145.63 158.92
  Q 150.46 158.94 155.52 159.58
  Q 156.11 159.65 156.11 160.24
  Q 156.14 165.65 154.22 171.06
  Q 154.05 171.53 154.45 171.83
  L 168.94 182.64
  Q 169.36 182.94 169.02 183.34
  L 163.03 190.23
  Q 162.79 190.50 162.51 190.28
  L 150.30 180.66
  Q 149.73 180.21 149.32 180.80
  Z"
/>
<path fill="#ffffff" d="
  M 102.48 200.92
  Q 98.18 210.69 87.82 210.45
  C 79.98 210.26 74.84 204.34 73.15 197.06
  Q 70.30 184.76 73.23 172.38
  C 74.73 166.04 79.18 160.44 85.95 159.48
  C 99.48 157.58 104.69 169.70 105.09 181.05
  C 105.32 187.85 105.16 194.81 102.48 200.92
  Z
  M 93.70 175.77
  C 93.19 172.65 90.98 168.05 87.10 169.59
  C 81.05 171.98 82.52 189.25 83.32 194.16
  C 83.79 197.07 86.94 203.05 90.78 199.68
  Q 93.11 197.64 93.65 194.17
  Q 95.15 184.70 93.70 175.77
  Z"
/>
<path fill="#ffffff" d="
  M 391.01 195.00
  Q 390.68 194.98 390.55 195.28
  C 386.92 203.09 381.26 209.11 372.29 210.00
  Q 371.64 210.07 371.64 209.41
  L 371.65 199.46
  Q 371.65 198.87 372.22 198.70
  C 384.30 195.06 385.88 170.42 385.91 160.43
  Q 385.91 159.83 386.51 159.84
  L 396.27 160.00
  Q 396.99 160.01 396.99 160.73
  Q 397.05 171.02 395.07 180.82
  A 2.25 2.24 33.4 0 0 395.43 182.55
  L 409.88 202.88
  A 0.92 0.92 0.0 0 1 409.65 204.17
  L 402.00 209.50
  Q 401.51 209.85 401.16 209.35
  Q 396.21 202.13 391.58 195.33
  Q 391.37 195.02 391.01 195.00
  Z"
/>
<path fill="#ffffff" d="
  M 211.17 195.80
  C 207.07 203.74 201.96 208.88 192.91 210.02
  A 0.81 0.81 0.0 0 1 191.99 209.22
  L 191.96 199.54
  Q 191.96 199.01 192.48 198.91
  C 203.05 196.91 205.33 179.26 205.60 170.42
  A 0.39 0.38 0.7 0 0 205.21 170.03
  L 193.81 169.98
  Q 193.62 169.98 193.62 169.79
  L 193.61 160.16
  Q 193.61 159.93 193.84 159.93
  L 227.83 159.92
  Q 228.04 159.92 228.04 160.14
  L 228.00 169.69
  A 0.29 0.29 0.0 0 1 227.71 169.98
  L 217.02 170.02
  Q 216.38 170.02 216.38 170.66
  Q 216.42 176.51 215.36 182.41
  A 1.46 1.43 31.8 0 0 215.64 183.54
  L 230.24 202.50
  Q 230.80 203.24 230.06 203.80
  L 222.79 209.23
  A 0.75 0.75 0.0 0 1 221.74 209.08
  L 211.93 195.74
  Q 211.50 195.15 211.17 195.80
  Z"
/>
<path fill="#ffffff" d="
  M 340.83 179.00
  L 365.08 179.00
  A 0.79 0.79 0.0 0 1 365.87 179.79
  L 365.85 187.20
  A 0.79 0.79 0.0 0 1 365.06 187.99
  L 312.21 188.00
  A 0.79 0.79 0.0 0 1 311.42 187.21
  L 311.42 179.77
  A 0.79 0.79 0.0 0 1 312.21 178.98
  L 328.21 179.01
  A 0.79 0.79 0.0 0 0 329.00 178.22
  L 328.99 171.79
  A 0.79 0.79 0.0 0 1 329.79 170.99
  L 339.24 171.05
  A 0.79 0.79 0.0 0 1 340.02 171.83
  L 340.04 178.21
  A 0.79 0.79 0.0 0 0 340.83 179.00
  Z"
/>
<path fill="#ffffff" d="
  M 273.02 191.76
  Q 272.77 191.05 271.73 191.05
  Q 261.43 191.03 251.46 191.03
  A 0.29 0.28 -90.0 0 1 251.18 190.74
  L 251.15 183.06
  Q 251.15 182.79 251.43 182.79
  L 305.46 182.79
  Q 305.64 182.79 305.64 182.96
  L 305.61 190.70
  Q 305.61 191.02 305.29 191.02
  L 284.74 191.04
  Q 283.88 191.04 283.77 191.90
  L 283.72 192.24
  A 0.55 0.55 0.0 0 0 284.21 192.86
  Q 291.17 193.62 296.12 195.17
  C 301.06 196.72 304.99 201.40 301.89 206.61
  C 300.05 209.71 295.60 211.23 292.26 211.84
  Q 279.04 214.27 265.53 212.02
  C 262.02 211.43 257.95 210.26 255.55 207.51
  C 252.38 203.89 253.73 199.08 257.65 196.65
  C 261.91 194.02 267.39 193.58 272.36 192.85
  A 0.83 0.83 0.0 0 0 273.02 191.76
  Z
  M 269.53 201.23
  C 268.29 201.29 266.98 201.83 265.83 202.31
  A 0.74 0.74 0.0 0 0 265.83 203.68
  C 268.95 205.01 271.46 204.76 274.73 204.90
  Q 282.04 205.19 288.04 204.59
  Q 289.58 204.44 291.06 203.55
  A 0.72 0.71 41.0 0 0 290.97 202.28
  Q 288.34 201.16 285.37 201.08
  Q 277.03 200.86 269.53 201.23
  Z"
/>
<path fill="#ffffff" d="
  M 352.72 211.57
  Q 340.85 214.18 327.57 212.20
  Q 323.08 211.53 319.19 209.64
  C 312.24 206.26 312.30 197.27 319.07 193.76
  Q 322.22 192.13 325.93 191.42
  C 335.19 189.67 348.57 189.34 357.56 193.48
  C 364.35 196.60 365.30 205.41 358.62 209.27
  Q 355.82 210.89 352.72 211.57
  Z
  M 351.68 201.67
  A 13.09 3.10 0.0 0 0 338.59 198.57
  A 13.09 3.10 0.0 0 0 325.50 201.67
  A 13.09 3.10 0.0 0 0 338.59 204.77
  A 13.09 3.10 0.0 0 0 351.68 201.67
  Z"
/>
<path fill="#ffffff" d="
  M 145.46 202.60
  L 181.69 202.59
  A 0.40 0.40 0.0 0 1 182.09 202.99
  L 182.10 211.90
  A 0.40 0.40 0.0 0 1 181.70 212.30
  L 134.34 212.30
  A 0.40 0.40 0.0 0 1 133.94 211.90
  L 133.95 193.68
  A 0.40 0.40 0.0 0 1 134.35 193.28
  L 144.64 193.29
  A 0.40 0.40 0.0 0 1 145.04 193.69
  L 145.06 202.20
  A 0.40 0.40 0.0 0 0 145.46 202.60
  Z"
/>
</svg>
